<svg style="position: absolute; width: 0; height: 0; overflow: hidden;" version="1.1" xmlns="http://www.w3.org/2000/svg" xmlns:xlink="http://www.w3.org/1999/xlink">
<defs>
<symbol id="icon-anchor" viewBox="0 0 32 32">
<title>anchor</title>
<path fill="#e74c3c" style="fill: var(--color1, #e74c3c)" d="M27.473 17.856l-2.643-3.896c-0.126-0.186-0.335-0.296-0.559-0.296s-0.433 0.111-0.559 0.296l-2.643 3.896c-0.141 0.207-0.155 0.475-0.038 0.696s0.347 0.36 0.597 0.36h1.304c-0.563 2.319-2.895 4.177-5.355 4.762v-14.932h2.101c0.58 0 1.051-0.47 1.051-1.051s-0.471-1.051-1.051-1.051h-1.083c0.757-0.701 1.239-1.694 1.239-2.805 0-2.114-1.72-3.834-3.835-3.834s-3.834 1.72-3.834 3.834c0 1.111 0.482 2.104 1.239 2.805h-1.082c-0.58 0-1.051 0.471-1.051 1.051s0.47 1.051 1.051 1.051h2.101v14.932c-2.46-0.584-4.793-2.442-5.356-4.762h1.305c0.25 0 0.48-0.139 0.597-0.36s0.103-0.489-0.038-0.696l-2.643-3.896c-0.126-0.186-0.335-0.297-0.559-0.297s-0.434 0.111-0.559 0.297l-2.643 3.896c-0.141 0.207-0.155 0.474-0.038 0.696s0.347 0.36 0.597 0.36h1.422c0.529 3.607 3.64 7.287 7.142 8.503l-0.262 0.321c-0.187 0.229-0.203 0.553-0.040 0.8l2.087 3.161c0.125 0.189 0.337 0.303 0.564 0.303s0.439-0.114 0.564-0.303l2.087-3.162c0.163-0.247 0.147-0.57-0.040-0.799l-0.262-0.322c3.503-1.216 6.613-4.896 7.142-8.503h1.422c0.25 0 0.48-0.139 0.597-0.36s0.103-0.489-0.038-0.696zM16 2.101c0.956 0 1.733 0.777 1.733 1.733s-0.777 1.733-1.733 1.733c-0.955 0-1.732-0.777-1.732-1.733s0.777-1.733 1.733-1.733z"></path>
</symbol>
<symbol id="icon-bulb" viewBox="0 0 32 32">
<title>bulb</title>
<path fill="#e74c3c" style="fill: var(--color1, #e74c3c)" d="M20.677 26.83v1.209c0 0.961-0.706 1.752-1.627 1.876l-0.294 1.085c-0.17 0.582-0.706 1-1.294 1h-2.922c-0.627 0-1.17-0.418-1.294-1l-0.294-1.085c-0.915-0.124-1.627-0.915-1.627-1.876v-1.209c0-0.627 0.503-1.17 1.17-1.17h7.046c0.634 0.046 1.137 0.549 1.137 1.17zM21.598 21.889c-0.209 1.314-1.366 2.301-2.693 2.301h-5.81c-1.359 0-2.497-0.967-2.693-2.301-0.235-1.516-0.948-2.954-2.007-4.052-1.869-1.961-2.915-4.503-2.961-7.176-0.046-5.837 4.641-10.621 10.444-10.66h0.078c5.85 0 10.608 4.726 10.608 10.529 0 2.719-1.078 5.386-2.961 7.314-1.072 1.105-1.771 2.503-2.007 4.046zM21.945 16.222c1.464-1.503 2.307-3.575 2.307-5.699 0-4.529-3.719-8.209-8.294-8.209h-0.065c-4.523 0.033-8.176 3.765-8.144 8.32 0.033 2.078 0.856 4.065 2.314 5.595 1.386 1.425 2.32 3.314 2.627 5.307 0.033 0.235 0.229 0.333 0.405 0.333h1.81v-6.791l-2.418-2.418c-0.425-0.425-0.425-1.118 0-1.549 0.425-0.425 1.118-0.425 1.549 0l1.961 1.961 1.961-1.961c0.425-0.425 1.118-0.425 1.549 0 0.425 0.425 0.425 1.118 0 1.549l-2.418 2.418v6.791h1.81c0.216 0 0.379-0.176 0.405-0.34 0.314-2.007 1.222-3.85 2.641-5.307z"></path>
</symbol>
<symbol id="icon-camera" viewBox="0 0 32 32">
<title>camera</title>
<path fill="#e74c3c" style="fill: var(--color1, #e74c3c)" d="M30.397 7.656h-6.706l-0.227-1.602-0.174-1.080c-0.070-0.435-0.301-0.796-0.662-1.098-0.37-0.308-0.766-0.47-1.202-0.47h-10.905c-0.436 0-0.836 0.156-1.202 0.47s-0.56 0.682-0.627 1.098l-0.174 1.080-0.244 1.602h-6.672c-0.889 0-1.603 0.714-1.603 1.568v17.768c0 0.888 0.714 1.602 1.603 1.602h28.794c0.889 0 1.603-0.714 1.603-1.602v-17.768c0-0.854-0.714-1.568-1.603-1.568zM30.066 26.661h-28.15v-17.089h6.358c0.958 0 1.785-0.713 1.916-1.637l0.226-1.602 0.174-0.993h10.8l0.157 0.993 0.244 1.602c0.14 0.923 0.975 1.637 1.899 1.637h6.376v17.089z"></path>
<path fill="#e74c3c" style="fill: var(--color1, #e74c3c)" d="M26.966 14.118c0.836 0 1.533-0.714 1.533-1.55 0-0.854-0.679-1.568-1.533-1.568s-1.533 0.714-1.533 1.568c0 0.836 0.697 1.55 1.533 1.55zM15.974 10.077c-1.968 0-3.675 0.714-5.086 2.125s-2.125 3.118-2.125 5.087c0 1.968 0.714 3.675 2.125 5.086s3.118 2.078 5.086 2.108c3.902 0.058 7.258-3.327 7.212-7.194-0.023-1.986-0.714-3.676-2.125-5.087s-3.101-2.125-5.087-2.125zM19.702 21.034c-1.027 1.027-2.264 1.533-3.728 1.533-1.446 0-2.682-0.505-3.71-1.533s-1.533-2.282-1.533-3.745c0-1.446 0.505-2.7 1.533-3.728s2.265-1.55 3.71-1.55c1.463 0 2.7 0.523 3.728 1.55s1.55 2.282 1.55 3.728c0 1.463-0.522 2.717-1.55 3.745z"></path>
</symbol>
<symbol id="icon-computer" viewBox="0 0 32 32">
<title>computer</title>
<path fill="#e74c3c" style="fill: var(--color1, #e74c3c)" d="M30.461 3.5h-28.922c-0.847 0-1.539 0.692-1.539 1.539v16.922c0 0.846 0.693 1.539 1.539 1.539h11.461c0 0.43-0.223 2.271-1.117 4h-1.383v0.387c0 0.337 0.275 0.613 0.613 0.613h9.775c0.337 0 0.613-0.276 0.613-0.613v-0.387h-1.383c-0.895-1.729-1.117-3.57-1.117-4h11.461c0.846 0 1.539-0.692 1.539-1.539v-16.922c0-0.846-0.692-1.539-1.539-1.539zM21.25 27.75v0.137c0 0.2-0.163 0.363-0.363 0.363h-9.775c-0.2 0-0.363-0.163-0.363-0.363v-0.137h10.5zM19.836 27.5h-7.672c0.867-1.722 1.086-3.564 1.086-4h5.5c0 0.436 0.219 2.279 1.086 4zM31.5 21.961c0 0.573-0.466 1.039-1.039 1.039h-28.922c-0.573 0-1.039-0.466-1.039-1.039v-16.922c0-0.573 0.466-1.039 1.039-1.039h28.922c0.573 0 1.039 0.466 1.039 1.039v16.922z"></path>
<path fill="#e74c3c" style="fill: var(--color1, #e74c3c)" d="M16.25 22.5c0 0.138-0.112 0.25-0.25 0.25s-0.25-0.112-0.25-0.25c0-0.138 0.112-0.25 0.25-0.25s0.25 0.112 0.25 0.25z"></path>
<path fill="#e74c3c" style="fill: var(--color1, #e74c3c)" d="M29.469 5h-26.939c-0.569 0-1.031 0.462-1.031 1.031v14.938c0 0.569 0.462 1.031 1.031 1.031h26.939c0.569 0 1.031-0.462 1.031-1.031v-14.938c0-0.569-0.462-1.031-1.031-1.031zM30.25 20.969c0 0.431-0.35 0.781-0.781 0.781h-26.939c-0.431 0-0.781-0.35-0.781-0.781v-14.938c0-0.431 0.35-0.781 0.781-0.781h26.939c0.431 0 0.781 0.35 0.781 0.781v14.938z"></path>
</symbol>
<symbol id="icon-facebook" viewBox="0 0 32 32">
<title>facebook</title>
<path d="M23.999 0.007l-4.15-0.007c-4.662 0-7.675 3.091-7.675 7.875v3.631h-4.172c-0.361 0-0.652 0.292-0.652 0.652v5.261c0 0.361 0.292 0.652 0.652 0.652h4.172v13.275c0 0.361 0.292 0.653 0.652 0.653h5.444c0.361 0 0.652-0.292 0.652-0.652v-13.275h4.878c0.361 0 0.652-0.292 0.652-0.652l0.002-5.261c0-0.173-0.069-0.339-0.191-0.461s-0.289-0.191-0.462-0.191h-4.88v-3.078c0-1.479 0.353-2.23 2.28-2.23l2.795-0.001c0.36 0 0.652-0.292 0.652-0.652v-4.885c0-0.36-0.292-0.652-0.652-0.652z"></path>
</symbol>
<symbol id="icon-google" viewBox="0 0 32 32">
<title>google</title>
<path d="M20.694 0h-7.632c-3.401 0-5.755 0.746-7.874 2.496-1.666 1.438-2.66 3.527-2.66 5.589 0 3.177 2.422 6.554 6.911 6.554 0.432 0 0.909-0.044 1.331-0.083l-0.062 0.151c-0.18 0.432-0.351 0.839-0.351 1.476 0 1.239 0.598 2.004 1.176 2.742l0.073 0.094-0.129 0.009c-1.854 0.127-5.304 0.364-7.825 1.913-2.977 1.77-3.208 4.344-3.208 5.091 0 2.97 2.768 5.969 8.953 5.969 7.191 0 10.954-3.968 10.954-7.886 0.001-2.898-1.699-4.329-3.503-5.849l-1.522-1.184c-0.47-0.39-1.056-0.874-1.056-1.773 0-0.883 0.586-1.466 1.103-1.981l0.054-0.055c1.644-1.294 3.506-2.762 3.506-5.937 0-3.192-1.995-4.842-2.954-5.634h2.533c0.031 0 0.062-0.009 0.088-0.025l2.182-1.372c0.062-0.040 0.091-0.115 0.071-0.186s-0.085-0.119-0.159-0.119zM11.439 30.251c-4.384 0-7.329-2.047-7.329-5.095 0-1.99 1.205-3.436 3.577-4.296 1.9-0.639 4.353-0.671 4.377-0.671 0.415 0 0.625 0 0.956 0.041 3.067 2.183 4.541 3.329 4.541 5.512 0 2.781-2.346 4.508-6.123 4.508zM11.398 13.469c-3.679 0-5.206-4.836-5.206-7.425 0-1.317 0.299-2.327 0.915-3.090 0.669-0.837 1.813-1.377 2.917-1.377 3.378 0 5.246 4.541 5.246 7.679 0 0.495 0 2.001-1.040 3.047-0.7 0.698-1.838 1.167-2.832 1.167zM31.39 14.946h-4.021v-4.007c0-0.091-0.074-0.165-0.165-0.165h-1.73c-0.091 0-0.165 0.074-0.165 0.165v4.007h-4.001c-0.091 0-0.165 0.074-0.165 0.165v1.753c0 0.091 0.074 0.165 0.165 0.165h4.001v4.033c0 0.091 0.074 0.165 0.165 0.165h1.73c0.091 0 0.165-0.074 0.165-0.165v-4.034h4.021c0.091 0 0.165-0.074 0.165-0.165v-1.752c0-0.092-0.074-0.165-0.165-0.165z"></path>
</symbol>
<symbol id="icon-heart" viewBox="0 0 32 32">
<title>heart</title>
<path fill="#e74c3c" style="fill: var(--color1, #e74c3c)" d="M31.946 9.996c-0.466-5.141-4.105-8.871-8.659-8.871-3.034 0-5.813 1.633-7.376 4.249-1.549-2.651-4.213-4.25-7.199-4.25-4.554 0-8.193 3.729-8.659 8.871-0.037 0.228-0.189 1.423 0.271 3.373 0.665 2.811 2.197 5.368 4.431 7.392l11.148 10.117 11.34-10.119c2.234-2.025 3.766-4.581 4.43-7.393 0.46-1.949 0.309-3.145 0.273-3.371zM30.476 13.085c-0.605 2.566-2.009 4.906-4.056 6.76l-10.508 9.375-10.329-9.373c-2.049-1.857-3.453-4.196-4.059-6.763-0.436-1.844-0.257-2.886-0.256-2.892l0.009-0.063c0.4-4.505 3.526-7.774 7.436-7.774 2.884 0 5.424 1.772 6.628 4.625l0.567 1.344 0.566-1.343c1.187-2.808 3.86-4.624 6.813-4.624 3.908 0 7.036 3.27 7.444 7.832 0.001 0.010 0.18 1.052-0.255 2.897z"></path>
</symbol>
<symbol id="icon-interface" viewBox="0 0 32 32">
<title>interface</title>
<path fill="#e74c3c" style="fill: var(--color1, #e74c3c)" d="M17.957 2.308c-0.529 0-1.058 0.11-1.506 0.332l-15.652 7.713c-0.449 0.221-0.797 0.584-0.797 1.053s0.349 0.832 0.797 1.053l8.805 4.338c0.065 0.032 0.138 0.048 0.21 0.047l8.805-0.161c0.067-0.001 0.133-0.017 0.194-0.047l12.392-6.106c0.448-0.221 0.797-0.584 0.797-1.053s-0.349-0.832-0.797-1.053l-11.739-5.785c-0.448-0.221-0.977-0.332-1.506-0.332zM17.957 3.257c0.414 0 0.828 0.068 1.102 0.203l11.739 5.785c0.274 0.135 0.287 0.237 0.287 0.233s-0.013 0.098-0.287 0.233l-12.189 6.006-4.363-2.15c-0.069-0.034-0.145-0.050-0.222-0.047-0.063 0.003-0.126 0.019-0.183 0.047l-4.363 2.15-8.276-4.078c-0.274-0.135-0.287-0.237-0.287-0.233s0.013-0.098 0.287-0.233l15.652-7.713c0.274-0.135 0.688-0.202 1.102-0.202zM19.252 5.39c-0.126 0.003-0.226 0.108-0.222 0.235 0.002 0.086 0.053 0.164 0.131 0.2l6.522 3.214c0.112 0.059 0.25 0.016 0.309-0.096s0.016-0.25-0.096-0.309c-0.003-0.002-0.007-0.004-0.011-0.006l-6.522-3.213c-0.034-0.017-0.072-0.026-0.11-0.025zM15.992 6.997c-0.126 0.004-0.226 0.109-0.222 0.235 0.002 0.086 0.053 0.163 0.13 0.2l6.522 3.214c0.112 0.059 0.25 0.016 0.309-0.096s0.016-0.25-0.096-0.309c-0.004-0.002-0.007-0.004-0.011-0.005l-6.522-3.214c-0.034-0.017-0.072-0.026-0.11-0.025zM12.731 8.604c-0.126 0.004-0.226 0.109-0.222 0.235 0.003 0.086 0.053 0.163 0.13 0.2l6.522 3.214c0.113 0.056 0.25 0.009 0.306-0.104s0.009-0.25-0.104-0.306l-6.521-3.214c-0.034-0.017-0.072-0.026-0.11-0.025zM7.095 8.764c-0.036 0-0.072 0.009-0.104 0.025l-4.891 2.41c-0.113 0.056-0.16 0.193-0.104 0.306 0.022 0.045 0.059 0.082 0.104 0.104l2.282 1.125c0.112 0.059 0.25 0.016 0.309-0.096s0.016-0.25-0.096-0.309c-0.004-0.002-0.007-0.004-0.011-0.006l-1.866-0.92 4.475-2.205c0.114-0.054 0.163-0.191 0.108-0.305-0.038-0.080-0.119-0.131-0.207-0.131zM14.044 14.485l2.673 1.317-5.552 0.101 2.879-1.418zM31.361 14.542c-0.087-0-0.174 0.020-0.252 0.059l-17.255 8.381-13.039-6.546c-0.272-0.141-0.607-0.034-0.748 0.238s-0.034 0.607 0.238 0.748c0.004 0.002 0.008 0.004 0.012 0.006l13.284 6.669c0.154 0.078 0.336 0.079 0.492 0.003l17.502-8.5c0.278-0.13 0.397-0.461 0.268-0.738-0.091-0.194-0.286-0.319-0.501-0.32zM19.332 18.982c-0.044 0-0.087 0.011-0.125 0.031l-5.425 2.713-4.871-2.49c-0.137-0.070-0.304-0.015-0.373 0.121s-0.016 0.303 0.121 0.373l4.996 2.553c0.079 0.040 0.172 0.041 0.25 0.001l5.551-2.775c0.138-0.067 0.196-0.232 0.129-0.37-0.047-0.097-0.145-0.158-0.252-0.157zM31.361 20.079c-0.087-0-0.174 0.020-0.252 0.059l-17.255 8.38-13.039-6.546c-0.271-0.144-0.607-0.040-0.75 0.23s-0.040 0.607 0.23 0.75c0.007 0.004 0.014 0.008 0.022 0.011l13.284 6.669c0.154 0.078 0.336 0.079 0.492 0.003l17.502-8.5c0.278-0.13 0.397-0.46 0.268-0.738-0.091-0.194-0.286-0.319-0.501-0.32zM19.332 24.518c-0.044 0-0.087 0.011-0.125 0.031l-5.425 2.713-4.871-2.489c-0.135-0.072-0.303-0.021-0.375 0.115s-0.020 0.303 0.115 0.375c0.002 0.001 0.005 0.003 0.008 0.004l4.996 2.553c0.079 0.040 0.172 0.041 0.25 0.001l5.551-2.775c0.138-0.067 0.196-0.232 0.129-0.37-0.047-0.097-0.145-0.158-0.252-0.157z"></path>
</symbol>
<symbol id="icon-linked" viewBox="0 0 32 32">
<title>linked</title>
<path d="M32 19.461v11.828h-6.861v-11.041c0-2.776-0.989-4.663-3.472-4.663-1.899 0-3.019 1.277-3.519 2.507-0.18 0.443-0.235 1.063-0.235 1.675v11.521h-6.855s0.092-18.693 0-20.629h6.856v2.924c-0.009 0.024-0.029 0.044-0.039 0.071h0.039v-0.071c0.916-1.405 2.539-3.408 6.183-3.408 4.523 0 7.903 2.948 7.903 9.287zM3.881 0.711c-2.345 0-3.881 1.539-3.881 3.568 0 1.975 1.491 3.565 3.793 3.565h0.041c2.397 0 3.883-1.591 3.883-3.565-0.047-2.029-1.485-3.568-3.836-3.568zM0.409 31.289h6.857v-20.632h-6.857v20.632z"></path>
</symbol>
<symbol id="icon-message" viewBox="0 0 32 32">
<title>message</title>
<path fill="#e74c3c" style="fill: var(--color1, #e74c3c)" d="M29.439 10.444h-7.163v-7.902c0-1.402-1.149-2.542-2.562-2.542h-17.154c-1.412 0-2.561 1.141-2.561 2.542v10.784c0 1.402 1.148 2.542 2.561 2.542h7.163v7.901c0 1.402 1.148 2.542 2.561 2.542h7.839l7.198 5.688v-5.688h2.118c1.412 0 2.561-1.14 2.561-2.542v-10.784c0-1.402-1.148-2.542-2.561-2.542zM2.561 13.865c-0.302 0-0.558-0.246-0.558-0.539v-10.784c0-0.293 0.255-0.539 0.558-0.539h17.154c0.303 0 0.558 0.246 0.558 0.539v7.901h-7.988c-1.412 0-2.561 1.141-2.561 2.542v0.879h-7.163zM29.997 23.77c0 0.292-0.255 0.539-0.558 0.539h-4.121v3.556l-4.498-3.556h-8.535c-0.302 0-0.558-0.246-0.558-0.539v-10.784c0-0.293 0.255-0.539 0.558-0.539h17.155c0.302 0 0.558 0.246 0.558 0.539v10.784z"></path>
</symbol>
<symbol id="icon-skype" viewBox="0 0 32 32">
<title>skype</title>
<path d="M30.664 18.316c0.119-0.756 0.182-1.528 0.182-2.317 0-8.2-6.647-14.846-14.847-14.846-0.787 0-1.562 0.065-2.317 0.183-1.367-0.846-2.981-1.336-4.711-1.336-4.955 0-8.971 4.016-8.971 8.972 0 1.729 0.49 3.342 1.336 4.712-0.117 0.757-0.182 1.527-0.182 2.316 0 8.2 6.647 14.845 14.845 14.845 0.787 0 1.563-0.061 2.318-0.18 1.369 0.844 2.981 1.335 4.71 1.335 4.956 0 8.972-4.017 8.972-8.973 0-1.73-0.489-3.342-1.336-4.711zM23.048 22.751c-0.628 0.904-1.551 1.611-2.756 2.119-1.208 0.509-2.636 0.763-4.285 0.763-1.976 0-3.612-0.346-4.904-1.044-0.915-0.5-1.66-1.171-2.232-2.007-0.574-0.837-0.864-1.657-0.864-2.456 0-0.472 0.18-0.882 0.53-1.216 0.354-0.337 0.809-0.506 1.347-0.506 0.44 0 0.819 0.133 1.127 0.395 0.306 0.263 0.562 0.645 0.772 1.149 0.251 0.584 0.524 1.072 0.815 1.462 0.289 0.385 0.695 0.706 1.221 0.957 0.52 0.252 1.213 0.378 2.080 0.378 1.186 0 2.145-0.257 2.879-0.763 0.737-0.511 1.092-1.132 1.092-1.883 0-0.599-0.191-1.075-0.583-1.446-0.395-0.376-0.906-0.662-1.539-0.862-0.636-0.202-1.489-0.416-2.559-0.641-1.436-0.314-2.638-0.678-3.611-1.098-0.974-0.421-1.75-0.996-2.325-1.722-0.576-0.733-0.864-1.645-0.864-2.725 0-1.030 0.303-1.95 0.911-2.752 0.607-0.803 1.485-1.419 2.63-1.847 1.141-0.428 2.484-0.643 4.023-0.643 1.231 0 2.295 0.142 3.196 0.426 0.899 0.285 1.648 0.662 2.247 1.135 0.595 0.472 1.033 0.969 1.31 1.491 0.277 0.523 0.417 1.035 0.417 1.534 0 0.464-0.18 0.885-0.53 1.253s-0.799 0.557-1.322 0.556c-0.472 0-0.842-0.109-1.099-0.339-0.25-0.223-0.513-0.578-0.797-1.072-0.359-0.69-0.789-1.228-1.289-1.612-0.487-0.377-1.29-0.574-2.408-0.572-1.034 0-1.861 0.211-2.486 0.625-0.628 0.42-0.929 0.907-0.93 1.478 0.001 0.358 0.104 0.659 0.311 0.917 0.21 0.26 0.502 0.486 0.878 0.676 0.376 0.193 0.758 0.342 1.142 0.45 0.389 0.11 1.034 0.269 1.93 0.48 1.124 0.242 2.144 0.513 3.060 0.808 0.915 0.297 1.695 0.654 2.34 1.080 0.65 0.425 1.158 0.966 1.521 1.621 0.365 0.655 0.547 1.456 0.547 2.397 0.002 1.134-0.314 2.154-0.944 3.057z"></path>
</symbol>
<symbol id="icon-spectacles" viewBox="0 0 32 32">
<title>spectacles</title>
<path fill="#e74c3c" style="fill: var(--color1, #e74c3c)" d="M31.194 15.194h-2.473c-0.392-2.662-2.685-4.714-5.455-4.714-2.592 0-4.767 1.799-5.357 4.212l-1.502-0.877c-0.251-0.146-0.562-0.146-0.813 0l-1.502 0.877c-0.59-2.413-2.765-4.212-5.357-4.212-2.769 0-5.062 2.053-5.455 4.714h-2.473c-0.445 0-0.806 0.361-0.806 0.806s0.361 0.806 0.806 0.806h2.473c0.392 2.662 2.685 4.715 5.455 4.715 2.883 0 5.253-2.223 5.496-5.044l1.77-1.033 1.77 1.033c0.243 2.821 2.613 5.044 5.496 5.044 2.769 0 5.062-2.053 5.455-4.715h2.473c0.445 0 0.806-0.361 0.806-0.806s-0.361-0.806-0.806-0.806zM8.734 19.908c-2.155 0-3.908-1.753-3.908-3.908s1.753-3.908 3.908-3.908 3.908 1.753 3.908 3.908c0 2.155-1.753 3.908-3.908 3.908zM23.266 19.908c-2.155 0-3.908-1.753-3.908-3.908s1.753-3.908 3.908-3.908c2.155 0 3.908 1.753 3.908 3.908s-1.753 3.908-3.908 3.908z"></path>
</symbol>
<symbol id="icon-tumblr" viewBox="0 0 32 32">
<title>tumblr</title>
<path d="M21.021 26.792c-0.93 0-1.743-0.215-2.437-0.646-0.542-0.32-0.902-0.736-1.083-1.25-0.195-0.5-0.292-1.695-0.292-3.584v-8.208h7.583v-5.021h-7.583v-8.083h-4.563c-0.208 1.639-0.583 3-1.125 4.084-0.542 1.069-1.257 1.986-2.146 2.75-0.889 0.75-1.965 1.334-3.229 1.75v4.521h3.542v11.229c0 1.486 0.153 2.604 0.458 3.354 0.292 0.75 0.841 1.479 1.646 2.188 0.833 0.694 1.792 1.215 2.875 1.562 1.125 0.375 2.417 0.563 3.875 0.563 1.333 0 2.535-0.132 3.604-0.396 1.056-0.236 2.292-0.688 3.709-1.354v-5.042c-1.597 1.056-3.208 1.584-4.833 1.584z"></path>
</symbol>
<symbol id="icon-twitter" viewBox="0 0 32 32">
<title>twitter</title>
<path d="M32 6.079c-1.178 0.522-2.442 0.876-3.769 1.034 1.356-0.812 2.394-2.1 2.885-3.629-1.272 0.752-2.676 1.298-4.171 1.594-1.198-1.278-2.901-2.074-4.791-2.074-3.625 0-6.565 2.94-6.565 6.563 0 0.514 0.058 1.016 0.17 1.496-5.455-0.274-10.292-2.887-13.529-6.859-0.566 0.968-0.888 2.096-0.888 3.299 0 2.278 1.16 4.287 2.92 5.463-1.076-0.036-2.088-0.332-2.973-0.824v0.082c0 3.179 2.264 5.833 5.265 6.437-0.55 0.148-1.13 0.23-1.73 0.23-0.424 0-0.834-0.042-1.236-0.122 0.836 2.61 3.259 4.507 6.131 4.559-2.246 1.76-5.077 2.806-8.152 2.806-0.53 0-1.052-0.032-1.566-0.090 2.906 1.866 6.355 2.953 10.062 2.953 12.076 0 18.676-10.002 18.676-18.677l-0.022-0.85c1.289-0.92 2.405-2.076 3.283-3.392z"></path>
</symbol>
<symbol id="icon-vimeo" viewBox="0 0 32 32">
<title>vimeo</title>
<path d="M27.322 2.139c-4.449-0.145-7.459 2.35-9.035 7.489 0.812-0.334 1.601-0.503 2.37-0.503 1.622 0 2.34 0.91 2.149 2.736-0.095 1.106-0.812 2.714-2.149 4.825-1.342 2.115-2.345 3.17-3.010 3.17-0.864 0-1.652-1.634-2.37-4.897-0.241-0.961-0.672-3.408-1.289-7.348-0.579-3.649-2.107-5.354-4.592-5.114-1.051 0.097-2.626 1.059-4.728 2.882-1.534 1.393-3.087 2.786-4.667 4.178l1.505 1.943c1.436-1.009 2.276-1.511 2.509-1.511 1.101 0 2.13 1.727 3.087 5.182 0.858 3.173 1.723 6.341 2.585 9.509 1.284 3.457 2.867 5.186 4.728 5.186 3.011 0 6.698-2.832 11.046-8.498 4.206-5.424 6.378-9.698 6.524-12.822 0.193-4.175-1.361-6.313-4.662-6.408z"></path>
</symbol>
<symbol id="icon-rss" viewBox="0 0 32 32">
<title>wi-fi</title>
<path d="M0 0v4.987c14.919 0 27.013 12.095 27.013 27.013h4.987c0-17.673-14.327-32-32-32zM0 9.974v4.987c9.411 0 17.039 7.629 17.039 17.039h4.987c0-12.164-9.861-22.026-22.025-22.026zM4.779 22.441c-2.64 0.001-4.779 2.141-4.779 4.78 0 2.64 2.14 4.779 4.779 4.779s4.779-2.139 4.779-4.779c0-2.639-2.14-4.779-4.78-4.779z"></path>
</symbol>
</defs>
</svg>
